<svg xmlns="http://www.w3.org/2000/svg" width="233.58mm" height="60.73mm" viewBox="0 0 662.12 172.15">
  <defs>
    <style>
      .cls-1 {
        fill: #df9730;
      }

      .cls-2 {
        fill: #fff;
      }
    </style>
  </defs>
  <title>logo</title>
  <g id="Слой_2" data-name="Слой 2">
    <g id="Слой_1-2" data-name="Слой 1">
      <path class="cls-1" d="M81.56,148.87H65.7l-6.63-10.14V122.12L34,97.35V59l29.19-27.9L98.44,31l29.19,27.9V97.28l-25.07,24.77v16.61l-6.63,10.14Zm-12.2-6.77L92.27,142l3.52-5.38V119.22l25.07-24.77V61.8l-25.13-24-29.82.07-25.13,24V94.52l25.07,24.77v17.42Z"/>
      <polygon class="cls-1" points="112.62 78.48 105.85 78.48 105.85 64.26 91.82 50.85 96.5 45.96 112.62 61.37 112.62 78.48"/>
      <rect class="cls-1" x="62.67" y="154.93" width="36.29" height="6.77"/>
      <rect class="cls-1" x="62.67" y="165.38" width="36.29" height="6.77"/>
      <g>
        <rect class="cls-1" x="32.46" y="0.44" width="6.77" height="15.6" transform="translate(2.46 23.67) rotate(-37.75)"/>
        <rect class="cls-1" x="5.07" y="37.23" width="6.77" height="15.6" transform="translate(-37.17 40.83) rotate(-74.1)"/>
        <rect class="cls-1" x="0.65" y="87.78" width="15.6" height="6.77" transform="translate(-44.06 16.17) rotate(-29.7)"/>
      </g>
      <g>
        <rect class="cls-1" x="117.9" y="4.86" width="15.6" height="6.77" transform="translate(42.23 102.59) rotate(-52.25)"/>
        <rect class="cls-1" x="145.3" y="41.65" width="15.6" height="6.77" transform="translate(-6.48 43.65) rotate(-15.89)"/>
        <rect class="cls-1" x="149.71" y="83.37" width="6.77" height="15.6" transform="translate(-1.94 179) rotate(-60.31)"/>
      </g>
      <g>
        <path class="cls-2" d="M189.48,120.36a2,2,0,0,1-.57,1.56,2.22,2.22,0,0,1-1.56.52h-3.92a1.86,1.86,0,0,1-2.13-2.08v-66a1.93,1.93,0,0,1,2.13-2.08h3.92a2.13,2.13,0,0,1,1.54.57,2,2,0,0,1,.59,1.51Z"/>
        <path class="cls-2" d="M260.18,122.44a2.15,2.15,0,0,1-1.75-.9L215.33,65v55.38q0,2.08-2.17,2.08h-3.92a1.84,1.84,0,0,1-2.08-2.08V54.44a2.21,2.21,0,0,1,.57-1.56,2,2,0,0,1,1.51-.61h5.25a2.16,2.16,0,0,1,1.8.95l42.44,55.24V54.11a1.94,1.94,0,0,1,2.08-1.84h3.88a2.44,2.44,0,0,1,1.56.57,1.84,1.84,0,0,1,.71,1.51v66q0,2.08-2.27,2.08Z"/>
        <path class="cls-2" d="M338.43,58.41a6.19,6.19,0,0,1,.87.76,1.27,1.27,0,0,1,.35.9,2,2,0,0,1-.21.83,5,5,0,0,1-.45.78l-2,3.12a2.06,2.06,0,0,1-1.61,1.09,3.44,3.44,0,0,1-.76-.21,4.27,4.27,0,0,1-.95-.54,29.87,29.87,0,0,0-7.82-4,26.6,26.6,0,0,0-8.67-1.46,27.7,27.7,0,0,0-26.08,17.3A27.68,27.68,0,0,0,289,87.57a26.05,26.05,0,0,0,2.32,10.94,28.52,28.52,0,0,0,6.19,8.81,28.88,28.88,0,0,0,8.93,5.86A26.91,26.91,0,0,0,317,115.31a30.35,30.35,0,0,0,3.61-.21,22.35,22.35,0,0,0,3.57-.73,29,29,0,0,0,3.71-1.37,34.39,34.39,0,0,0,4-2.13,5.35,5.35,0,0,0,.92-.54q.5-.35.94-.71a6.63,6.63,0,0,1,.87-.59,1.55,1.55,0,0,1,.71-.24A2,2,0,0,1,337,110l2.17,3.59a2.76,2.76,0,0,1,.33,1.32,1.82,1.82,0,0,1-1.09,1.61,37.7,37.7,0,0,1-9.88,5.13,36.94,36.94,0,0,1-21.22.59,35.8,35.8,0,0,1-8.6-3.64,36.29,36.29,0,0,1-7.3-5.65,36.06,36.06,0,0,1-5.6-43.69,36.94,36.94,0,0,1,5.65-7.32,35.25,35.25,0,0,1,7.3-5.65,37.06,37.06,0,0,1,8.62-3.64,36.09,36.09,0,0,1,21,.54A37.76,37.76,0,0,1,338.43,58.41Z"/>
        <path class="cls-2" d="M353.31,54.54a2.32,2.32,0,0,1,.57-1.68,2,2,0,0,1,1.51-.59h27.31A21.73,21.73,0,0,1,391.42,54a22.1,22.1,0,0,1,7,4.8,22.66,22.66,0,0,1,4.73,7.11A22.45,22.45,0,0,1,404,81a22.64,22.64,0,0,1-2.65,5.69,22.12,22.12,0,0,1-4.06,4.68A21.81,21.81,0,0,1,392,94.75l12.43,25.61a2.5,2.5,0,0,1,.24.85,1.08,1.08,0,0,1-.45.87,2,2,0,0,1-1.25.35H398.2a2.19,2.19,0,0,1-1.49-.47,3.7,3.7,0,0,1-.92-1.32L384.36,96.59a7.72,7.72,0,0,1-1.09.12q-.57,0-1.51,0H361.49v23.63a1.84,1.84,0,0,1-2.08,2.08h-4a1.84,1.84,0,0,1-2.08-2.08Zm43.52,20a13.61,13.61,0,0,0-1.09-5.39,14.81,14.81,0,0,0-3-4.51,14.19,14.19,0,0,0-4.49-3.12,13.55,13.55,0,0,0-5.58-1.16H361.49V88.66h21.36a13.46,13.46,0,0,0,5.53-1.13,13.9,13.9,0,0,0,4.42-3.07,14.63,14.63,0,0,0,3-4.51A13.78,13.78,0,0,0,396.84,74.53Z"/>
        <path class="cls-2" d="M466.63,52.27q2.13,0,2.13,2.22v3.83a2.26,2.26,0,0,1-.57,1.51,2.06,2.06,0,0,1-1.65.66H427.27V81.38H458.5a2.2,2.2,0,0,1,1.46.52,2.05,2.05,0,0,1,.61,1.65v3.87a2.38,2.38,0,0,1-.52,1.51,1.86,1.86,0,0,1-1.56.66H427.27v24.62H467q2.13,0,2.13,2.22v3.92a1.84,1.84,0,0,1-2.08,2.08H421.17q-2.08,0-2.08-2v-66q0-2.17,2.08-2.17Z"/>
        <path class="cls-2" d="M485.48,120.55a2.65,2.65,0,0,1-2.6,1.89h-4.06q-2,0-2-1.51a4.55,4.55,0,0,1,.09-.9,1,1,0,0,1,.14-.33L486,98l6.78-16.3q2.88-6.92,4.87-11.65t3.26-7.82q1.28-3.09,2-4.75l1-2.43c.22-.52.36-.87.42-1.06a4.65,4.65,0,0,1,.64-1.13,2,2,0,0,1,1.72-.61h2.79a1.9,1.9,0,0,1,1.63.61,6.67,6.67,0,0,1,.69,1.13l27.22,65.73a3.22,3.22,0,0,0,.17.47,2.06,2.06,0,0,1,.16.71,1.26,1.26,0,0,1-.59,1.13,2.81,2.81,0,0,1-1.54.38h-4.06a2.5,2.5,0,0,1-1.58-.5,3.11,3.11,0,0,1-1-1.3l-5.48-13.56H490.82Zm8.74-21.5h27.64L508.12,64.46Z"/>
        <path class="cls-2" d="M588.83,66.82q-1.13-1-2.84-2.32a28.36,28.36,0,0,0-3.87-2.5,27.38,27.38,0,0,0-4.77-2,18.31,18.31,0,0,0-5.58-.83,21.28,21.28,0,0,0-6.9,1,14.1,14.1,0,0,0-4.75,2.62,10.21,10.21,0,0,0-3.62,7.73A6.3,6.3,0,0,0,558,74.69a13.25,13.25,0,0,0,3.88,3.07A30.19,30.19,0,0,0,567.26,80q3,.95,6.07,1.8,2.79.76,5.74,1.61t5.74,1.91a36.48,36.48,0,0,1,5.25,2.48,19,19,0,0,1,4.3,3.35,14.69,14.69,0,0,1,2.91,4.47,15,15,0,0,1,1.06,5.84,19.92,19.92,0,0,1-2.06,9.12,20.45,20.45,0,0,1-5.65,6.9,26.32,26.32,0,0,1-8.41,4.37,33.92,33.92,0,0,1-10.35,1.54,34.61,34.61,0,0,1-7.23-.76,31.94,31.94,0,0,1-6.8-2.27,31,31,0,0,1-6.12-3.76,29.48,29.48,0,0,1-5.13-5.17,3,3,0,0,1-.76-1.7,2,2,0,0,1,.85-1.51l3-2.5a2.92,2.92,0,0,1,.73-.38,2.22,2.22,0,0,1,.73-.14,1.21,1.21,0,0,1,.64.19,4,4,0,0,1,.59.45l.52.5.33.33a24.64,24.64,0,0,0,4.65,3.8,37,37,0,0,0,5.15,2.74,30.16,30.16,0,0,0,5,1.68,18.1,18.1,0,0,0,4.09.57,24.58,24.58,0,0,0,4.09-.35A23.25,23.25,0,0,0,580.3,114a20.72,20.72,0,0,0,3.8-1.84,14.47,14.47,0,0,0,3.14-2.6,11.56,11.56,0,0,0,2.13-3.38,10.8,10.8,0,0,0,.78-4.16,7.56,7.56,0,0,0-1.58-4.87,13.09,13.09,0,0,0-4.25-3.38,32.85,32.85,0,0,0-6.12-2.39q-3.45-1-7.13-1.94a85.61,85.61,0,0,1-10.18-3.26,30.21,30.21,0,0,1-7.28-4,15.26,15.26,0,0,1-4.35-5,13.69,13.69,0,0,1-1.44-6.38,17.76,17.76,0,0,1,6.62-14.08,22.69,22.69,0,0,1,7.66-4,33.18,33.18,0,0,1,10-1.42,26.76,26.76,0,0,1,5.81.66,32,32,0,0,1,5.77,1.87A37.68,37.68,0,0,1,589,56.64a26.75,26.75,0,0,1,4.54,3.62q.61.61,1.23,1.32a2.1,2.1,0,0,1,.61,1.32,2.14,2.14,0,0,1-.76,1.47l-2.84,2.74a1.87,1.87,0,0,1-1.28.66A2.61,2.61,0,0,1,588.83,66.82Z"/>
        <path class="cls-2" d="M659.66,52.27q2.13,0,2.13,2.22v3.83a2.26,2.26,0,0,1-.57,1.51,2.06,2.06,0,0,1-1.65.66H620.3V81.38h31.24a2.2,2.2,0,0,1,1.46.52,2.05,2.05,0,0,1,.61,1.65v3.87a2.38,2.38,0,0,1-.52,1.51,1.86,1.86,0,0,1-1.56.66H620.3v24.62H660q2.13,0,2.13,2.22v3.92a1.84,1.84,0,0,1-2.08,2.08H614.2q-2.08,0-2.08-2v-66q0-2.17,2.08-2.17Z"/>
      </g>
      <g>
        <path class="cls-1" d="M209.43,145.61q.64,6.74,1.29,13.59v0a.61.61,0,0,1-.69.69h-.81a.66.66,0,0,1-.73-.71l-2.16-23.67-9.8,21.82a.78.78,0,0,1-.36.38,1,1,0,0,1-.43.14h-.5a1.15,1.15,0,0,1-.44-.07,1,1,0,0,1-.35-.45l-4.91-10.91-4.91-10.91-2.16,23.67a.64.64,0,0,1-.71.73h-.81a.62.62,0,0,1-.52-.22.86.86,0,0,1-.17-.55L182.79,132a.73.73,0,0,1,.29-.56.9.9,0,0,1,.52-.17h1.27a.74.74,0,0,1,.52.48l10.07,22.57,10.07-22.55a.72.72,0,0,1,.31-.38,1.17,1.17,0,0,1,.47-.15,3.8,3.8,0,0,1,.55,0h.52a.79.79,0,0,1,.55.18.65.65,0,0,1,.22.45V132Q208.79,138.86,209.43,145.61Z"/>
        <path class="cls-1" d="M215.12,159.27q.27-.73.55-1.44t.55-1.34l3.13-7.52,2.37-5.67,1.76-4.19,1.29-3.08,1-2.32q.41-1,.82-1.95a1.08,1.08,0,0,1,.26-.41.67.67,0,0,1,.47-.15h.56a.66.66,0,0,1,.48.15,1.6,1.6,0,0,1,.27.37L240,159a1,1,0,0,0,0,.16.94.94,0,0,1,0,.2q0,.42-.6.52h-1a.74.74,0,0,1-.71-.56L235,152.73H220.13l-1.38,3.34q-.69,1.66-1.36,3.36a.69.69,0,0,1-.68.5l-.19,0h-.83c-.4,0-.6-.2-.6-.48A.51.51,0,0,1,215.12,159.27Zm12.46-24.63q-1.64,4-3.26,7.95t-3.26,7.95h13Z"/>
        <path class="cls-1" d="M257.52,131.26a8.87,8.87,0,0,1,3.5.73,9,9,0,0,1,2.84,1.94,9.14,9.14,0,0,1,1.9,2.85,9.09,9.09,0,0,1,.31,6.11,8.89,8.89,0,0,1-1.09,2.31,9.24,9.24,0,0,1-1.68,1.9,8.65,8.65,0,0,1-2.15,1.36L266,159.08a1,1,0,0,1,.1.35.6.6,0,0,1-.12.33.41.41,0,0,1-.37.17h-1.35a.52.52,0,0,1-.5-.37L259,149a6.23,6.23,0,0,1-.78.14,7.45,7.45,0,0,1-.9,0h-9.4v10a.61.61,0,0,1-.69.69h-.83a.61.61,0,0,1-.69-.69V131.9a1.37,1.37,0,0,1,.25-.49.58.58,0,0,1,.44-.14ZM256.4,147l1.59,0a5.23,5.23,0,0,0,1.53-.27l.12,0a7,7,0,0,0,1.85-1,6.52,6.52,0,0,0,1.46-1.46,6.86,6.86,0,0,0-.68-8.81,6.87,6.87,0,0,0-2.15-1.47,6.57,6.57,0,0,0-2.66-.54h-9.53V147Z"/>
        <path class="cls-1" d="M274.57,159a.79.79,0,0,1-.91.89h-.46q-.85,0-.85-.89V132.13a.87.87,0,0,1,.22-.6.79.79,0,0,1,.63-.25h.52a.85.85,0,0,1,.6.23.8.8,0,0,1,.25.62v16l15.36-16.3a1.46,1.46,0,0,1,1-.6H293q.71,0,.21.5c0-.06,0-.09,0-.07a.46.46,0,0,0,0,.13l-10.82,11.32,13.45,16q.64.77-.14.77H294a.64.64,0,0,1-.4-.15,3.56,3.56,0,0,1-.44-.44l-12.17-14.6-6.37,6.71Z"/>
        <path class="cls-1" d="M320.18,131.26a.65.65,0,0,1,.73.73v.77a.68.68,0,0,1-.75.73H303.07v10.34h13.81a.79.79,0,0,1,.53.17.7.7,0,0,1,.2.56v.79a.66.66,0,0,1-.73.71H303.07v11.63h17.38a.64.64,0,0,1,.73.71v.81a.62.62,0,0,1-.71.69h-19a.6.6,0,0,1-.44-.17.68.68,0,0,1-.17-.5V132a.22.22,0,0,1,0-.1.17.17,0,0,0,0-.08q.06-.54.68-.54Z"/>
        <path class="cls-1" d="M345.58,131.26a.79.79,0,0,1,.53.17.77.77,0,0,1,.24.52v.79a.77.77,0,0,1-.19.54.74.74,0,0,1-.58.21h-9v25.72a.63.63,0,0,1-.71.71h-.79a.63.63,0,0,1-.71-.71V133.5h-9q-.69,0-.69-.75V132a.64.64,0,0,1,.69-.69Z"/>
        <path class="cls-1" d="M351.8,132a.62.62,0,0,1,.71-.69h.79a.72.72,0,0,1,.53.18.69.69,0,0,1,.18.51v27.28a.62.62,0,0,1-.71.69h-.79a.62.62,0,0,1-.71-.69Z"/>
        <path class="cls-1" d="M382.84,131.92a.62.62,0,0,1,.7-.66h.87q.65,0,.66.62v27.41a.62.62,0,0,1-.71.64h-.91a.79.79,0,0,1-.64-.31L363.35,135v24.25a.62.62,0,0,1-.71.69h-.81a.61.61,0,0,1-.69-.69V132a.78.78,0,0,1,.15-.5.58.58,0,0,1,.48-.19H363a.46.46,0,0,1,.37.19l4.75,6,5,6.26,5,6.26,4.75,6Z"/>
        <path class="cls-1" d="M405.81,133.21a12.14,12.14,0,0,0-3.37.46,12.66,12.66,0,0,0-3,1.28,12.38,12.38,0,0,0-4.43,4.5,12.9,12.9,0,0,0-1.23,3,12.28,12.28,0,0,0,0,6.54,12.75,12.75,0,0,0,1.26,3,12.3,12.3,0,0,0,1.95,2.51,12.53,12.53,0,0,0,2.53,1.94,12.68,12.68,0,0,0,3,1.25,12,12,0,0,0,3.27.44,11.74,11.74,0,0,0,4.07-.68,12.33,12.33,0,0,0,3.2-1.69V148a.63.63,0,0,1,.71-.71h.81a.73.73,0,0,1,.52.18.7.7,0,0,1,.19.53v8.64a.7.7,0,0,1,0,.16,1,1,0,0,1-.09.21.79.79,0,0,1-.14.19.3.3,0,0,1-.22.09,14.94,14.94,0,0,1-13,2.53,14.5,14.5,0,0,1-3.5-1.48,15,15,0,0,1-3-2.29,14.15,14.15,0,0,1-2.29-3,14.86,14.86,0,0,1-1.47-3.51,14.7,14.7,0,0,1,1.48-11.3,14.83,14.83,0,0,1,5.25-5.28,14.7,14.7,0,0,1,3.51-1.5,14.54,14.54,0,0,1,9.58.63,17.35,17.35,0,0,1,1.76.89,13.16,13.16,0,0,1,1.6,1.1.75.75,0,0,1,.4.49.6.6,0,0,1-.14.51l-.52.66a.79.79,0,0,1-.51.36,1.4,1.4,0,0,1-.8-.36,13.54,13.54,0,0,0-3.53-1.87A11.71,11.71,0,0,0,405.81,133.21Z"/>
        <path class="cls-1" d="M432.74,159.27q.27-.73.55-1.44t.55-1.34L437,149l2.37-5.67,1.76-4.19,1.29-3.08,1-2.32q.41-1,.82-1.95a1.08,1.08,0,0,1,.26-.41.67.67,0,0,1,.47-.15h.56a.66.66,0,0,1,.48.15,1.58,1.58,0,0,1,.27.37L457.61,159a.94.94,0,0,0,0,.16.94.94,0,0,1,0,.2c0,.28-.2.46-.6.52h-1a.74.74,0,0,1-.71-.56l-2.76-6.66H437.76l-1.38,3.34q-.69,1.66-1.36,3.36a.69.69,0,0,1-.68.5l-.19,0h-.83c-.4,0-.6-.2-.6-.48A.54.54,0,0,1,432.74,159.27Zm12.46-24.63q-1.64,4-3.26,7.95t-3.26,7.95h13Z"/>
        <path class="cls-1" d="M474.37,133.21a12.13,12.13,0,0,0-3.37.46,12.64,12.64,0,0,0-3,1.28,12.38,12.38,0,0,0-4.43,4.5,12.9,12.9,0,0,0-1.23,3,12.25,12.25,0,0,0,0,6.54,12.7,12.7,0,0,0,1.26,3,12.29,12.29,0,0,0,1.95,2.51,12.65,12.65,0,0,0,5.49,3.19,12,12,0,0,0,3.27.44,11.75,11.75,0,0,0,4.07-.68,12.33,12.33,0,0,0,3.2-1.69V148a.63.63,0,0,1,.71-.71h.81a.73.73,0,0,1,.52.18.7.7,0,0,1,.19.53v8.64a.66.66,0,0,1,0,.16,1,1,0,0,1-.09.21.82.82,0,0,1-.14.19.3.3,0,0,1-.22.09,14.95,14.95,0,0,1-13,2.53,14.49,14.49,0,0,1-3.5-1.48,15,15,0,0,1-3-2.29,14.18,14.18,0,0,1-2.29-3,14.86,14.86,0,0,1-1.47-3.51,14.7,14.7,0,0,1,1.48-11.3,14.9,14.9,0,0,1,2.29-3,14.67,14.67,0,0,1,6.47-3.8,14.54,14.54,0,0,1,9.58.63,17.25,17.25,0,0,1,1.76.89,13.17,13.17,0,0,1,1.6,1.1.75.75,0,0,1,.39.49.6.6,0,0,1-.14.51l-.52.66a.79.79,0,0,1-.51.36,1.4,1.4,0,0,1-.8-.36,13.53,13.53,0,0,0-3.53-1.87A11.71,11.71,0,0,0,474.37,133.21Z"/>
        <path class="cls-1" d="M509.12,131.26a.65.65,0,0,1,.73.73v.77a.68.68,0,0,1-.75.73H492v10.34h13.81a.79.79,0,0,1,.53.17.7.7,0,0,1,.2.56v.79a.66.66,0,0,1-.73.71H492v11.63h17.38a.64.64,0,0,1,.73.71v.81a.62.62,0,0,1-.71.69h-19a.6.6,0,0,1-.44-.17.68.68,0,0,1-.17-.5V132a.21.21,0,0,1,0-.1.19.19,0,0,0,0-.08q.06-.54.67-.54Z"/>
        <path class="cls-1" d="M537,131.92a.62.62,0,0,1,.7-.66h.87q.65,0,.66.62v27.41a.62.62,0,0,1-.71.64h-.91a.79.79,0,0,1-.64-.31L517.51,135v24.25a.62.62,0,0,1-.71.69H516a.61.61,0,0,1-.69-.69V132a.78.78,0,0,1,.15-.5.58.58,0,0,1,.48-.19h1.22a.46.46,0,0,1,.37.19l4.75,6,5,6.26,5,6.26,4.75,6Z"/>
        <path class="cls-1" d="M569,134a.75.75,0,0,1,.39.49.6.6,0,0,1-.14.51l-.52.66a.79.79,0,0,1-.51.36,1.4,1.4,0,0,1-.8-.36,14.23,14.23,0,0,0-3.53-1.9,11.27,11.27,0,0,0-3.9-.68,12.29,12.29,0,0,0-3.39.46,12.52,12.52,0,0,0-3,1.3,12.7,12.7,0,0,0-2.54,2,12.79,12.79,0,0,0-3.2,5.5,11.67,11.67,0,0,0-.44,3.2,11.38,11.38,0,0,0,.47,3.25,13,13,0,0,0,1.31,3,13.46,13.46,0,0,0,2,2.57,13.77,13.77,0,0,0,2.53,2,12.45,12.45,0,0,0,2.91,1.32,10.73,10.73,0,0,0,3.16.47,11.25,11.25,0,0,0,2-.19,13.06,13.06,0,0,0,2.07-.56,14.26,14.26,0,0,0,2-.9,11,11,0,0,0,1.78-1.21.8.8,0,0,1,.61-.16.91.91,0,0,1,.59.47l.29.46a1,1,0,0,1,.13.62.76.76,0,0,1-.38.58,15.75,15.75,0,0,1-3.26,1.91,14.79,14.79,0,0,1-5.77,1.14,14.53,14.53,0,0,1-7.4-2,15.16,15.16,0,0,1-3-2.31,14.23,14.23,0,0,1-2.3-3,15.25,15.25,0,0,1-1.49-3.54,14.61,14.61,0,0,1,1.48-11.33,14.91,14.91,0,0,1,2.3-3,14.45,14.45,0,0,1,3-2.3,15.25,15.25,0,0,1,3.54-1.49,14.49,14.49,0,0,1,3.94-.53,14.29,14.29,0,0,1,5.69,1.16,17.25,17.25,0,0,1,1.76.89A13.17,13.17,0,0,1,569,134Z"/>
        <path class="cls-1" d="M572.8,132.38a.84.84,0,0,1-.12-.79.64.64,0,0,1,.64-.31H574a1.88,1.88,0,0,1,.36,0,.72.72,0,0,1,.27.12,1.12,1.12,0,0,1,.26.28c.09.13.19.3.31.5l7.72,12.94,8-13.2a1.18,1.18,0,0,1,1-.68h.95q.89,0,.37.89L584,147.33V159a.79.79,0,0,1-.89.89h-.46q-.85,0-.85-.89V147.49Z"/>
      </g>
    </g>
  </g>
</svg>
